<svg width="439" height="521" viewBox="0 0 439 521" fill="none" xmlns="http://www.w3.org/2000/svg">
<g filter="url(#filter0_ddii_85_81)">
<path d="M84.8234 22.9073L15.3549 262.325C13.8298 267.581 15.5072 273.244 19.6489 276.822L205.036 437.578C205.036 437.578 211.555 443.158 217.565 443.18C223.603 443.201 229.154 437.578 229.154 437.578L415.097 278.039C419.239 274.461 420.916 268.799 419.391 263.543L349.923 24.1249C347.079 14.3263 335.047 10.762 327.326 17.4314L230.516 101.054C224.274 106.446 224.023 116.039 229.974 121.75L295.447 184.578C299.396 188.368 300.775 194.11 298.977 199.279L225.015 405.288C225.015 405.288 223.176 412.362 216.56 412.362C209.944 412.362 207.868 405.288 207.868 405.288L135.727 198.168C133.929 192.999 135.308 187.256 139.257 183.467L204.809 120.563C210.761 114.852 210.509 105.259 204.267 99.8667L107.42 16.2138C99.6992 9.54453 87.6665 13.1088 84.8234 22.9073Z" fill="url(#paint0_linear_85_81)" shape-rendering="crispEdges"/>
<path d="M84.4395 22.7955C87.3639 12.7174 99.74 9.05134 107.682 15.9108L204.528 99.5641C210.949 105.11 211.207 114.977 205.086 120.851L139.533 183.755C135.697 187.436 134.358 193.016 136.104 198.037L208.245 405.157L208.249 405.167L208.251 405.175C208.251 405.176 208.252 405.177 208.252 405.178C208.253 405.181 208.254 405.185 208.256 405.191C208.259 405.203 208.266 405.22 208.273 405.244C208.289 405.292 208.312 405.364 208.346 405.457C208.412 405.642 208.516 405.908 208.66 406.229C208.949 406.872 209.401 407.729 210.051 408.583C211.349 410.288 213.418 411.962 216.561 411.962C219.701 411.961 221.707 410.291 222.945 408.589C223.565 407.737 223.988 406.882 224.255 406.24C224.388 405.919 224.483 405.653 224.543 405.468C224.573 405.376 224.594 405.303 224.608 405.255C224.615 405.232 224.621 405.214 224.624 405.203C224.626 405.197 224.626 405.193 224.627 405.19L224.628 405.188L224.633 405.171L224.639 405.153L298.599 199.148L298.754 198.675C300.26 193.78 298.886 188.433 295.17 184.867L229.697 122.039C223.576 116.164 223.834 106.297 230.255 100.751L327.064 17.1285C335.006 10.269 347.382 13.935 350.307 24.0133L419.775 263.431C421.344 268.837 419.618 274.662 415.358 278.341L415.357 278.342L229.428 437.869C229.425 437.871 229.423 437.875 229.42 437.878C229.408 437.889 229.392 437.905 229.37 437.926C229.326 437.969 229.262 438.032 229.178 438.111C229.01 438.268 228.765 438.492 228.452 438.759C227.828 439.295 226.931 440.008 225.843 440.721C223.675 442.141 220.698 443.591 217.563 443.58C214.45 443.568 211.242 442.124 208.844 440.715C207.638 440.008 206.624 439.301 205.91 438.771C205.553 438.506 205.271 438.285 205.077 438.13C204.981 438.052 204.906 437.99 204.855 437.948C204.83 437.927 204.81 437.91 204.797 437.899C204.79 437.894 204.785 437.889 204.781 437.886L204.776 437.881L205.036 437.578L204.775 437.881L204.773 437.88L19.3877 277.125L18.9951 276.773C15.0226 273.081 13.4511 267.451 14.9707 262.214L84.4395 22.7955Z" stroke="url(#paint1_linear_85_81)" stroke-width="0.8" shape-rendering="crispEdges"/>
</g>
<g filter="url(#filter1_ddii_85_81)">
<path d="M169.973 234.836L214.876 140.446C215.964 138.16 219.219 138.166 220.299 140.455L264.8 234.817C266.054 237.474 263.135 240.163 260.589 238.695L219.089 214.774C218.165 214.242 217.028 214.24 216.102 214.769L174.17 238.73C171.619 240.187 168.71 237.489 169.973 234.836Z" fill="url(#paint2_linear_85_81)" shape-rendering="crispEdges"/>
<path d="M214.515 140.275C215.748 137.684 219.437 137.69 220.661 140.284L265.162 234.646C266.582 237.658 263.274 240.705 260.389 239.042L218.889 215.12C218.089 214.659 217.103 214.657 216.3 215.115L174.369 239.077C171.478 240.729 168.181 237.671 169.612 234.664L214.515 140.275Z" stroke="url(#paint3_linear_85_81)" stroke-width="0.8" shape-rendering="crispEdges"/>
</g>
<path d="M95.189 487.409C95.189 489.617 94.645 491.633 93.557 493.457C92.501 495.249 91.061 496.689 89.237 497.777C87.413 498.865 85.397 499.409 83.189 499.409H63.893V494.657H83.189C84.533 494.657 85.749 494.337 86.837 493.697C87.925 493.025 88.789 492.145 89.429 491.057C90.069 489.937 90.389 488.721 90.389 487.409C90.389 486.065 90.069 484.849 89.429 483.761C88.789 482.673 87.925 481.809 86.837 481.169C85.749 480.529 84.533 480.209 83.189 480.209H61.205V509.009H56.405V475.409H83.189C85.397 475.409 87.413 475.953 89.237 477.041C91.061 478.097 92.501 479.537 93.557 481.361C94.645 483.185 95.189 485.201 95.189 487.409ZM130.761 495.761C130.761 498.193 130.249 500.417 129.225 502.433C128.233 504.417 126.825 506.017 125.001 507.233C123.177 508.417 121.049 509.009 118.617 509.009H110.265C107.833 509.009 105.689 508.417 103.833 507.233C102.009 506.017 100.585 504.417 99.5612 502.433C98.5692 500.417 98.0732 498.193 98.0732 495.761C98.0732 493.329 98.5692 491.121 99.5612 489.137C100.585 487.153 102.009 485.569 103.833 484.385C105.689 483.201 107.833 482.609 110.265 482.609H118.617C121.049 482.609 123.177 483.201 125.001 484.385C126.825 485.569 128.233 487.153 129.225 489.137C130.249 491.121 130.761 493.329 130.761 495.761ZM125.961 495.761C125.961 494.225 125.673 492.817 125.097 491.537C124.521 490.257 123.673 489.249 122.553 488.513C121.465 487.745 120.153 487.361 118.617 487.361H110.265C108.729 487.361 107.401 487.745 106.281 488.513C105.193 489.249 104.345 490.257 103.737 491.537C103.161 492.817 102.873 494.225 102.873 495.761C102.873 497.297 103.161 498.705 103.737 499.985C104.345 501.265 105.193 502.289 106.281 503.057C107.401 503.825 108.729 504.209 110.265 504.209H118.617C120.153 504.209 121.465 503.825 122.553 503.057C123.673 502.289 124.521 501.265 125.097 499.985C125.673 498.705 125.961 497.297 125.961 495.761ZM140.831 509.009H136.079V482.609H140.831V509.009ZM171.991 509.009C171.991 506.897 171.575 504.881 170.743 502.961C169.943 501.009 168.855 499.201 167.479 497.537C166.103 495.873 164.567 494.369 162.871 493.025C161.175 491.681 159.431 490.561 157.639 489.665C155.879 488.769 154.183 488.129 152.551 487.745V509.009H147.751V482.609H150.343V482.657C152.071 482.753 153.895 483.137 155.815 483.809C157.767 484.449 159.719 485.345 161.671 486.497C163.623 487.649 165.479 488.993 167.239 490.529C169.031 492.065 170.615 493.777 171.991 495.665V482.609H176.791V509.009H171.991ZM198.296 509.009H193.496V487.361H180.776V482.609H210.968V487.361H198.296V509.009ZM242.522 509.009H214.97V482.513H242.522V487.361H219.818V504.161H242.522V509.009ZM239.45 498.065H222.074V493.217H239.45V498.065ZM278.885 509.009H272.357L264.869 501.857H255.125V497.105H268.421C269.765 497.105 270.901 496.625 271.829 495.665C272.789 494.673 273.269 493.521 273.269 492.209C273.269 490.865 272.789 489.729 271.829 488.801C270.901 487.841 269.765 487.361 268.421 487.361H252.629V509.009H247.829V482.609H268.421C270.213 482.609 271.829 483.041 273.269 483.905C274.709 484.769 275.861 485.937 276.725 487.409C277.589 488.849 278.021 490.449 278.021 492.209C278.021 493.649 277.717 495.009 277.109 496.289C276.533 497.537 275.717 498.625 274.661 499.553C273.637 500.449 272.453 501.089 271.109 501.473L278.885 509.009ZM313.927 509.009H309.127V501.761H290.647V496.865H309.127V487.361H296.647C295.079 487.361 293.655 487.745 292.375 488.513C291.095 489.281 290.071 490.305 289.303 491.585C288.535 492.833 288.151 494.241 288.151 495.809V509.009H283.303V495.809C283.303 493.985 283.639 492.273 284.311 490.673C285.015 489.041 285.975 487.617 287.191 486.401C288.439 485.185 289.863 484.241 291.463 483.569C293.095 482.865 294.823 482.513 296.647 482.513H313.927V509.009ZM348.652 509.009H331.612C329.148 509.009 326.988 508.417 325.132 507.233C323.276 506.049 321.836 504.449 320.812 502.433C319.788 500.417 319.276 498.177 319.276 495.713C319.276 493.249 319.788 491.025 320.812 489.041C321.836 487.057 323.276 485.473 325.132 484.289C326.988 483.105 329.148 482.513 331.612 482.513H348.652V487.361H331.612C330.076 487.361 328.748 487.745 327.628 488.513C326.508 489.249 325.644 490.241 325.036 491.489C324.428 492.737 324.124 494.145 324.124 495.713C324.124 497.281 324.428 498.705 325.036 499.985C325.644 501.265 326.508 502.289 327.628 503.057C328.748 503.793 330.076 504.161 331.612 504.161H348.652V509.009ZM368.593 509.009H363.793V487.361H351.073V482.609H381.265V487.361H368.593V509.009Z" fill="url(#paint4_linear_85_81)"/>
<defs>
<filter id="filter0_ddii_85_81" x="0" y="0" width="438.746" height="463.98" filterUnits="userSpaceOnUse" color-interpolation-filters="sRGB">
<feFlood flood-opacity="0" result="BackgroundImageFix"/>
<feColorMatrix in="SourceAlpha" type="matrix" values="0 0 0 0 0 0 0 0 0 0 0 0 0 0 0 0 0 0 127 0" result="hardAlpha"/>
<feOffset dx="2" dy="4"/>
<feGaussianBlur stdDeviation="8"/>
<feComposite in2="hardAlpha" operator="out"/>
<feColorMatrix type="matrix" values="0 0 0 0 0 0 0 0 0 0 0 0 0 0 0 0 0 0 0.3 0"/>
<feBlend mode="normal" in2="BackgroundImageFix" result="effect1_dropShadow_85_81"/>
<feColorMatrix in="SourceAlpha" type="matrix" values="0 0 0 0 0 0 0 0 0 0 0 0 0 0 0 0 0 0 127 0" result="hardAlpha"/>
<feOffset dx="1" dy="2"/>
<feGaussianBlur stdDeviation="2"/>
<feComposite in2="hardAlpha" operator="out"/>
<feColorMatrix type="matrix" values="0 0 0 0 0 0 0 0 0 0 0 0 0 0 0 0 0 0 0.3 0"/>
<feBlend mode="normal" in2="effect1_dropShadow_85_81" result="effect2_dropShadow_85_81"/>
<feBlend mode="normal" in="SourceGraphic" in2="effect2_dropShadow_85_81" result="shape"/>
<feColorMatrix in="SourceAlpha" type="matrix" values="0 0 0 0 0 0 0 0 0 0 0 0 0 0 0 0 0 0 127 0" result="hardAlpha"/>
<feOffset/>
<feGaussianBlur stdDeviation="2"/>
<feComposite in2="hardAlpha" operator="arithmetic" k2="-1" k3="1"/>
<feColorMatrix type="matrix" values="0 0 0 0 1 0 0 0 0 1 0 0 0 0 1 0 0 0 0.3 0"/>
<feBlend mode="normal" in2="shape" result="effect3_innerShadow_85_81"/>
<feColorMatrix in="SourceAlpha" type="matrix" values="0 0 0 0 0 0 0 0 0 0 0 0 0 0 0 0 0 0 127 0" result="hardAlpha"/>
<feOffset dy="1"/>
<feGaussianBlur stdDeviation="1"/>
<feComposite in2="hardAlpha" operator="arithmetic" k2="-1" k3="1"/>
<feColorMatrix type="matrix" values="0 0 0 0 1 0 0 0 0 1 0 0 0 0 1 0 0 0 0.3 0"/>
<feBlend mode="normal" in2="effect3_innerShadow_85_81" result="effect4_innerShadow_85_81"/>
</filter>
<filter id="filter1_ddii_85_81" x="154.865" y="125.935" width="129.039" height="134.009" filterUnits="userSpaceOnUse" color-interpolation-filters="sRGB">
<feFlood flood-opacity="0" result="BackgroundImageFix"/>
<feColorMatrix in="SourceAlpha" type="matrix" values="0 0 0 0 0 0 0 0 0 0 0 0 0 0 0 0 0 0 127 0" result="hardAlpha"/>
<feOffset dx="2" dy="4"/>
<feGaussianBlur stdDeviation="8"/>
<feComposite in2="hardAlpha" operator="out"/>
<feColorMatrix type="matrix" values="0 0 0 0 0 0 0 0 0 0 0 0 0 0 0 0 0 0 0.3 0"/>
<feBlend mode="normal" in2="BackgroundImageFix" result="effect1_dropShadow_85_81"/>
<feColorMatrix in="SourceAlpha" type="matrix" values="0 0 0 0 0 0 0 0 0 0 0 0 0 0 0 0 0 0 127 0" result="hardAlpha"/>
<feOffset dx="1" dy="2"/>
<feGaussianBlur stdDeviation="2"/>
<feComposite in2="hardAlpha" operator="out"/>
<feColorMatrix type="matrix" values="0 0 0 0 0 0 0 0 0 0 0 0 0 0 0 0 0 0 0.3 0"/>
<feBlend mode="normal" in2="effect1_dropShadow_85_81" result="effect2_dropShadow_85_81"/>
<feBlend mode="normal" in="SourceGraphic" in2="effect2_dropShadow_85_81" result="shape"/>
<feColorMatrix in="SourceAlpha" type="matrix" values="0 0 0 0 0 0 0 0 0 0 0 0 0 0 0 0 0 0 127 0" result="hardAlpha"/>
<feOffset/>
<feGaussianBlur stdDeviation="2"/>
<feComposite in2="hardAlpha" operator="arithmetic" k2="-1" k3="1"/>
<feColorMatrix type="matrix" values="0 0 0 0 1 0 0 0 0 1 0 0 0 0 1 0 0 0 0.3 0"/>
<feBlend mode="normal" in2="shape" result="effect3_innerShadow_85_81"/>
<feColorMatrix in="SourceAlpha" type="matrix" values="0 0 0 0 0 0 0 0 0 0 0 0 0 0 0 0 0 0 127 0" result="hardAlpha"/>
<feOffset dy="1"/>
<feGaussianBlur stdDeviation="1"/>
<feComposite in2="hardAlpha" operator="arithmetic" k2="-1" k3="1"/>
<feColorMatrix type="matrix" values="0 0 0 0 1 0 0 0 0 1 0 0 0 0 1 0 0 0 0.3 0"/>
<feBlend mode="normal" in2="effect3_innerShadow_85_81" result="effect4_innerShadow_85_81"/>
</filter>
<linearGradient id="paint0_linear_85_81" x1="275.532" y1="443.18" x2="168.838" y2="12.8004" gradientUnits="userSpaceOnUse">
<stop stop-color="#FFCC00"/>
<stop offset="1" stop-color="#FF3B3B"/>
</linearGradient>
<linearGradient id="paint1_linear_85_81" x1="159.252" y1="12.8004" x2="308.372" y2="449.393" gradientUnits="userSpaceOnUse">
<stop stop-color="white"/>
<stop offset="1" stop-color="white" stop-opacity="0.1"/>
</linearGradient>
<linearGradient id="paint2_linear_85_81" x1="192.315" y1="134.727" x2="242.432" y2="243.477" gradientUnits="userSpaceOnUse">
<stop stop-color="#FFD900"/>
<stop offset="1" stop-color="#D5FF4C"/>
</linearGradient>
<linearGradient id="paint3_linear_85_81" x1="201.984" y1="134.727" x2="232.763" y2="243.477" gradientUnits="userSpaceOnUse">
<stop stop-color="white"/>
<stop offset="1" stop-color="white" stop-opacity="0.1"/>
</linearGradient>
<linearGradient id="paint4_linear_85_81" x1="52.373" y1="492.009" x2="382.373" y2="492.009" gradientUnits="userSpaceOnUse">
<stop stop-color="#A6A6A6"/>
<stop offset="1" stop-color="#666666"/>
</linearGradient>
</defs>
</svg>
